<svg xmlns="http://www.w3.org/2000/svg" xmlns:xlink="http://www.w3.org/1999/xlink" id="Layer_1" x="0px" y="0px" viewBox="0 0 250 90" style="enable-background:new 0 0 250 90;" xml:space="preserve"><style type="text/css">	.st0{fill:#DBB377;}	.st1{fill:#010101;}	.st2{font-family:'CormorantInfant-Bold';}	.st3{font-size:26.2281px;}	.st4{letter-spacing:5;}</style><g>	<g>		<g transform="translate(74.90747, 164.617373)">			<g>				<path class="st0" d="M-61.06-161.12c4,0,6.1,3.61,8.98,10.82l20.98,55.4h0.65l20.98-55.4c2.76-7.28,4.98-10.82,8.98-10.82v-0.65      h-18.55v0.65c9.24,0,9.11,6.88,7.41,12.13c-5.05,15.54-11.21,31.01-16.65,46.48l-17.7-46.68c-2.49-6.62-2.82-11.93,6.43-11.93      v-0.65h-21.51V-161.12z"></path>			</g>		</g>	</g></g><g>	<g>		<g transform="translate(55.408462, 189.52862)">			<g>				<path class="st0" d="M-25.99-102.99c8.39,0,14.16-1.31,19.41-3.02v-8.79h-0.72c0,0-4.13,11.02-18.69,11.02      c-12.65,0-23.28-14.16-23.28-33.31c0-19.14,9.7-33.31,23.28-33.31c10.95,0,16.26,4.65,16.26,12.46      c0,9.57-18.42,13.44-18.42,24.98c0,3.02,2.16,6.88,5.7,6.1c-1.31-1.12-1.97-2.23-1.97-4.26c0-7.8,18.55-12.66,18.55-26.29      c0-5.97-5.11-13.77-20.13-13.77c-16.32,0-29.17,14.42-29.17,34.09S-42.32-102.99-25.99-102.99z"></path>			</g>		</g>	</g></g><text transform="matrix(1 0 0 1 57.6264 52.6198)" class="st1 st2 st3 st4">ACATION</text><text transform="matrix(1 0 0 1 57.6264 83.734)" class="st1 st2 st3 st4">APPADOCIA</text></svg>